#!OML:ASF F:\VICON\USERDATA\INSTALL\rory3\rory3.ASF
:FULLY-SPECIFIED
:DEGREES
29
root 0.8475922636441382 17.959399132716943 -0.20788906547961972 -0.9445766772725455 -1.4663704946919758 -5.187371201885625
lfemur -23.485144365630156 -3.1473291627930355 -14.316347937262737
ltibia 19.233254323766396
lfoot -8.83264269239228 2.154618079668615
ltoes -7.816450653779228
rfemur 7.7478242664977035 4.5099022539636335 31.330158498927435
rtibia 32.68815841274155
rfoot -12.324236347849553 -4.810657902035457
rtoes -3.7416981995974536
lowerback -1.0 1.518979261994059 4.343520591697134
upperback -0.11610072305837574 3.033181383083967 1.7970177680411876
thorax -5.993867657850272 1.4730612411349786 -1.2953676244398469
lowerneck -15.7519673813059 -3.7663132432866995 -1.4484897085847455
upperneck 21.500874427913395 -5.392107454257306 1.269165952578382
head 9.470680613575501 -2.4729849761131826 0.05517290095288871
lclavicle 2.719512460062627e-15 5.13346078882454e-16
lhumerus -36.72769191296751 10.753656729376504 79.29506977195727
lradius 21.631903026575742
lwrist 4.475445226026505
lhand -28.707466406272346 19.27737831709292
lfingers nan
lthumb -2.3406277189284292 48.5096276153112
rclavicle 2.7367139034649113e-15 4.907086953351407e-16
rhumerus -21.795608450148936 -13.778049379977567 -80.51969258467683
rradius 33.959513236266126
rwrist -0.2946540493601133
rhand -18.589130819310764 -1.0
rfingers nan
rthumb 7.737734103771537 -6.036868431097948
30
root 0.9058066600703731 17.987030802116948 0.7720776750857912 -1.6427365005495456 -1.5401533791996762 -4.3575547721664005
lfemur -21.99483586370214 -2.5171002802372806 -16.202945048240768
ltibia 22.23012101378405
lfoot -6.972890393131928 -0.4780935578241401
ltoes -5.995123237819276
rfemur 7.041278367055375 4.510242131620895 29.9678630856175
rtibia 38.368417957401604
rfoot -7.609532752929928 -3.4523158791388804
rtoes -2.659429670143642
lowerback -1.0 1.468647955694689 3.6747310637299373
upperback -0.007214952110969591 2.7712835486578786 1.63596442725956
thorax -5.899657248362116 1.33140884247726 -1.0725129692178161
lowerneck -15.83587636380987 -3.850836629604808 -1.4256431418501982
upperneck 21.8173842486108 -5.570280923724492 1.2328479525112326
head 9.583425022022448 -2.544146651322631 0.029606886227488194
lclavicle 1.6076053289279841e-15 -8.018124631780849e-16
lhumerus -36.718948960539144 10.993253273562559 78.89932666204773
lradius 21.296988297377467
lwrist 4.2909649513333274
lhand -28.422786781043545 19.099569992363218
lfingers nan
lthumb -2.0089876909049096 48.335288492409255
rclavicle 1.7577257662291295e-15 -6.880509081601596e-16
rhumerus -22.8858401943401 -14.689352324054031 -80.29231259416329
rradius 33.478632396576884
rwrist 0.3059080272650325
rhand -18.671958725565023 -1.0
rfingers nan
rthumb 7.669049496816761 -5.87032104900058
31
root 0.9571238187907771 18.063466850986835 2.1513490377186884 -2.428632635283059 -1.5228881337145426 -3.5737229250116616
lfemur -19.618125718253797 -2.0024331074244412 -17.9970068718568
ltibia 24.64536138718837
lfoot -5.630575094912956 -2.162006777458804
ltoes -2.9118184110190306
rfemur 3.7257453731186754 3.806039427551016 28.13387893949448
rtibia 47.533877941885194
rfoot 0.18059360550356462 -2.165786337339881
rtoes 1.8889212753222584
lowerback -1.0 1.4987496413415957 3.1070313220526398
upperback 0.06065091650321383 2.667745439512796 1.4744980561256655
thorax -5.856179060226857 1.2826406827901224 -0.6749340591913493
lowerneck -15.88980691488219 -3.8894753864383644 -1.6216028556194775
upperneck 22.031576598899047 -5.600205114768327 1.3206006461074415
head 9.665550709947754 -2.5576711027911005 0.057151377810732956
lclavicle 1.3176813730951505e-17 9.856200110737164e-16
lhumerus -36.64818121125061 10.97077644139351 78.556445656758
lradius 21.009004495364916
lwrist 4.180297423208788
lhand -28.56885102979492 18.909131200035958
lfingers nan
lthumb -2.0540639314181393 48.344837637613246
rclavicle -3.819156712504834e-16 8.174196021152061e-16
rhumerus -24.664478876689344 -16.122487943892878 -79.96886003575905
rradius 33.12700207029949
rwrist 1.0201927903693315
rhand -18.58933672896802 -1.0
rfingers nan
rthumb 7.662413033209664 -6.475431590616859
32
root 1.0181372415002512 18.138483909430814 2.842767295111032 -3.044513808153251 -1.6612268411640998 -2.7291569389359895
lfemur -16.277370272370312 -1.3967477670459407 -19.88613874361805
ltibia 25.855601624008703
lfoot -6.5276214182368095 -2.6525529596959077
ltoes -1.4832604849058875
rfemur -0.03523332606678409 3.320520585412787 26.549466884031116
rtibia 56.46010339115064
rfoot 9.293158448489173 -2.170020648168885
rtoes 12.314971639834276
lowerback -1.0 1.4958141382360213 2.5115973128741067
upperback 0.007970037346412676 2.534082979434383 1.2862794586167428
thorax -5.972992341875772 1.2162405862858525 -0.41253694829523835
lowerneck -16.056613753370993 -3.87412148803426 -1.6598681890476403
upperneck 22.119692040352117 -5.529653803462826 1.3092096644940736
head 9.729758228903183 -2.533795838088096 0.0625840148280209
lclavicle 2.156733915687178e-15 4.676989170989329e-16
lhumerus -36.49645863810699 10.743750895233248 78.47977441849004
lradius 21.076606432355774
lwrist 4.588778511274644
lhand -28.51759450301613 18.660996031594397
lfingers nan
lthumb -1.9252696987475129 48.31563961978642
rclavicle 1.9635457342252847e-15 3.2193810100029654e-16
rhumerus -26.00023346297675 -17.188370637908033 -79.8731768345237
rradius 32.81340038588386
rwrist 1.340046047532963
rhand -18.38048960075468 -1.0
rfingers nan
rthumb 7.831354867025511 -7.161720269564373
33
root 1.0656484746447188 18.217782523950454 3.8222713431239557 -3.494903712482171 -2.0689675975010813 -1.1008057997204261
lfemur -12.381313806600582 -1.4197711538264137 -22.511395302542397
ltibia 25.091789672347804
lfoot -8.293249310445308 -1.5485620323699745
ltoes -1.5139650170275747
rfemur -5.090305258560818 2.9874421125991484 24.269364747761024
rtibia 65.08744750028447
rfoot 13.163838392860022 -4.151097718755627
rtoes 21.185457731752745
lowerback -1.0 1.4678054593482948 1.4499280297762955
upperback -0.026129737218704818 2.333587284154799 1.0857483908244472
thorax -6.145166662515266 1.1214712361476014 -0.04816632361596862
lowerneck -16.07634999482102 -3.7975346268991843 -1.770601830519108
upperneck 22.013051112480813 -5.302643584400114 1.2782272939958674
head 9.72026770886542 -2.459921605184187 0.1070989852468886
lclavicle -2.8437702057025016e-15 -7.911519344992737e-16
lhumerus -36.12374920380639 10.050590876633981 78.75691962941438
lradius 21.596567414350375
lwrist 5.191477595853318
lhand -28.690187634575167 18.394057439409988
lfingers nan
lthumb -2.0076235882916205 48.3270252265687
rclavicle -2.811985614972211e-15 -6.502251649463369e-16
rhumerus -26.838519479384978 -18.2391044691704 -79.74726308236497
rradius 32.15751293843195
rwrist 1.2609179320199164
rhand -18.226863867431177 -1.0
rfingers nan
rthumb 8.034197130980694 -7.539364353939126
34
root 1.073901510406588 18.235154648524112 4.472839247389529 -3.7397831765464398 -1.8851703884232078 -0.18743368515086045
lfemur -9.301075552584134 -1.6818623936301156 -23.792484264662548
ltibia 24.74267955252394
lfoot -10.371263001881317 -0.347866765428559
ltoes -1.3956129831841366
rfemur -10.443368644683433 2.877704774679326 22.882124113831942
rtibia 71.96090371775352
rfoot 9.186187012608428 -7.034359249233693
rtoes 18.516464826233946
lowerback -1.0 1.2018270798653674 0.6354336377703399
upperback 0.03666728357013324 1.90556655065437 0.9570086771733288
thorax -6.277172626477981 0.9453717691034582 0.5259723378059925
lowerneck -16.199002898949292 -3.727924893185945 -1.892144641436142
upperneck 21.826622724734897 -5.093337254326219 1.2422166274030353
head 9.689108640135078 -2.3878768032813666 0.13712619583477015
lclavicle -2.7260483058835748e-15 -9.480082213054259e-16
lhumerus -35.430185071945 9.019016530967853 79.22576016600925
lradius 22.29441335469779
lwrist 5.918546034675938
lhand -28.825335015255913 18.30657134412864
lfingers nan
lthumb -2.1228129762060837 48.385461269695355
rclavicle -2.183926773411418e-15 -4.783318829975733e-16
rhumerus -27.127577276368545 -18.758580124589056 -79.7020586589174
rradius 31.272762790216987
rwrist 1.45658586091171
rhand -18.004337555054292 -1.0
rfingers nan
rthumb 8.314065881885417 -7.45670145271515
